<svg xmlns="http://www.w3.org/2000/svg" xmlns:xlink="http://www.w3.org/1999/xlink" viewBox="0 0 95.84 62.86"><defs><style>.cls-1{isolation:isolate;}.cls-2{opacity:0.72;mix-blend-mode:multiply;fill:url(#radial-gradient);}.cls-3,.cls-6{fill:#4c9640;}.cls-3,.cls-4{fill-rule:evenodd;}.cls-4,.cls-5,.cls-9{fill:#2ca1db;}.cls-6,.cls-9{font-size:12px;font-family:Raleway-Bold, Raleway;font-weight:700;}.cls-7{letter-spacing:-0.01em;}.cls-8{letter-spacing:-0.03em;}</style><radialGradient id="radial-gradient" cx="51.98" cy="-304.18" r="20.76" gradientTransform="translate(1.93 59.42) scale(0.88 0.09)" gradientUnits="userSpaceOnUse"><stop offset="0"/><stop offset="0" stop-color="#030303"/><stop offset="0.12" stop-color="#3d3d3d"/><stop offset="0.24" stop-color="#717171"/><stop offset="0.36" stop-color="#9c9c9c"/><stop offset="0.48" stop-color="silver"/><stop offset="0.6" stop-color="#dcdcdc"/><stop offset="0.72" stop-color="#efefef"/><stop offset="0.85" stop-color="#fbfbfb"/><stop offset="0.97" stop-color="#fff"/></radialGradient></defs><title>logo</title><g class="cls-1"><g id="Layer_1" data-name="Layer 1"><ellipse class="cls-2" cx="47.92" cy="32.89" rx="18.37" ry="1.81"/><path class="cls-3" d="M46.26,32.67h.62C43,29.14,38,23.37,37.74,20.27,36.67,8.86,56,8.05,57.31,18.41c.33,1.79-1.77,1,.48,4,.29.38-.31.64-.76.74s-.26.24-.22.55a3.12,3.12,0,0,1,.1.86c-.07.14-.81,0-.6.07s.41.41.26.6-.72.6-.72,1.07h0c0,3.7-4.15-1.14-4.65,1-.26,1-1.24.38-2.51.17-.14-2.82.52-4.06,3.34-6.25,11.36-8.8-13.41-11.79-5.89,3.34,1.86,3.75-4.56-3.34-4.87-4.32C41.71,28,49.94,32.65,57,32.6a1.73,1.73,0,0,1,1.74,1.72h0A1.76,1.76,0,0,1,57,36.06l-10.69.07a1.75,1.75,0,0,1-1.74-1.72h0a1.76,1.76,0,0,1,1.72-1.74Z" transform="translate(-4.14 -10.09)"/><path class="cls-4" d="M47.24,37,56,36.94a1.39,1.39,0,0,1,1.41,1.38h0A1.4,1.4,0,0,1,56,39.76l-8.73.07a1.41,1.41,0,0,1-1.41-1.41h0A1.4,1.4,0,0,1,47.24,37Z" transform="translate(-4.14 -10.09)"/><path class="cls-3" d="M48.13,40.71l7,0a1.16,1.16,0,0,1,1.15,1.12h0a1.16,1.16,0,0,1-1.12,1.15l-7,0A1.12,1.12,0,0,1,47,41.86h0a1.16,1.16,0,0,1,1.12-1.15Z" transform="translate(-4.14 -10.09)"/><path class="cls-5" d="M53.64,31.88c19.26-16.72-1.43-23.16-9-20.68,14.06-5.3,35.08,9.4,9,20.68Z" transform="translate(-4.14 -10.09)"/><text class="cls-6" transform="translate(0 60.11)">VisaConsultan<tspan class="cls-7" x="82.7" y="0">c</tspan><tspan class="cls-8" x="89.39" y="0">y</tspan></text><text class="cls-9" transform="translate(25.22 47.11)">IMMIGO</text></g></g></svg>